<svg xmlns="http://www.w3.org/2000/svg" viewBox="0 0 450.93 138.16" fill="#fff" xmlns:v="https://vecta.io/nano"><path d="M0 69.98V13.17c0-.86-.05-1.73.08-2.58.52-3.4 2.67-4.47 5.64-2.81 3.51 1.97 6.28 4.88 9.32 7.43l21.59 18.35L53.4 47.83c1.79 1.5 3.78 2.76 5.63 4.19.88.68 1.51.35 2.3-.17 8.42-5.59 15.86-12.4 23.7-18.71l22.63-18.57c2.72-2.22 5.4-4.51 8.26-6.53 3.62-2.55 5.58-1.62 6.55 2.74.26 1.17.33 2.31.33 3.49v111.28 1.41c-.25 5.79-2.55 8.02-8.33 8.04H97.55c-6.16-.02-8.67-2.49-8.69-8.7l.03-30.99c.11-6.81-.51-13.58-.54-20.38 0-.53.16-1.24-.34-1.53-.68-.39-1.15.28-1.59.68-6.23 5.81-12.98 11.05-18.82 17.28-1.34 1.43-2.92 2.58-4.6 3.6-2.29 1.39-4.45 1.12-6.52-.46-.81-.61-1.68-1.18-2.37-1.91-5.64-5.98-11.86-11.36-17.92-16.89-.56-.51-1.08-1.51-1.86-1.21-.93.35-.61 1.49-.65 2.31-.96 16.25-.58 32.52-.65 48.78 0 .78.02 1.57-.02 2.35-.21 4.48-2.6 6.96-7.1 7.03-6.26.1-12.53.1-18.8 0-4.71-.08-7.1-2.66-7.1-7.46V69.98zm450.93-1.02v57.99c0 5.14-1.66 7.56-6.62 7.86-6.38.38-12.82.69-19.21-.28-2.63-.4-4.2-2.07-4.7-4.58-.38-1.9-.57-3.87-.59-5.81V93.86c.03-3.68-.33-7.33-.5-10.99-.06-1.28-.59-1.75-1.85-1.85-11.18-.91-22.37-.36-33.56-.44-1.62-.01-3.23.59-4.89.43-1.9-.18-2.28.78-2.41 2.51-.93 12.97-.18 25.95-.43 38.93-.04 1.87-.06 3.72-.37 5.6-.8 4.83-1.79 6.45-6.5 6.75-6.46.41-12.98.71-19.44-.26-2.63-.4-4.19-2.08-4.69-4.59-.38-1.9-.58-3.87-.58-5.81V13.8c0-1.94.22-3.9.58-5.81.64-3.42 3.24-4.81 6.31-4.9 6.32-.18 12.68-.67 18.98.29 3.49.53 4.76 2.29 5.3 5.83.48 3.12.36 6.23.42 9.35.2 10.08-.45 20.17.44 30.24.13 1.43.33 2.3 2.04 2.45 10.79.91 21.59.46 32.38.47 1.93 0 3.86-.58 5.83-.47 1.81.1 2.34-.71 2.48-2.5.88-11.01.21-22.04.42-33.06.04-1.95.06-3.88.38-5.83.77-4.72 1.69-6.2 6.31-6.67 5.99-.62 12.07-.61 18.05-.01 4.87.48 6.39 2.77 6.4 7.82l.01 29.58v28.41zM135.39 52.48v-39.9c0-.86-.06-1.74.08-2.58 1.09-6.3 2.56-6.51 8.89-6.96 5.51-.39 11.1-.41 16.64.34 3.18.43 5.29 2.56 5.5 5.97.09 1.56.04 3.13.04 4.69l.05 63.85c.03 4.89.3 9.8 1.31 14.65 2.18 10.5 9.45 16.47 20.2 16.53 5.69.03 11.01-.97 15.63-4.58 3.37-2.64 5.08-6.29 6.29-10.2 1.79-5.78 2.4-11.78 2.43-17.78l.05-65.49c0-4.24 1.56-6.8 4.62-7.5 1.36-.31 2.78-.57 4.17-.55 5.31.09 10.63-.38 15.94.37 4.39.62 6.36 2.58 6.39 7.12l.03 26.06-.05 53.75c-.07 9.65-2.64 18.64-8.32 26.61-6.07 8.53-14.26 14.16-24.14 17.3-16.92 5.38-33.88 5.59-50.48-1.05-14.01-5.6-21.78-16.49-24.3-31.21-.82-4.78-1-9.61-.97-14.46l.02-34.98zm157.3 85.4c-14.12.06-25.63-3.04-35.88-10.25-4.39-3.09-4.91-6.1-1.9-10.57 2.62-3.88 5.34-7.7 8.09-11.49 2.79-3.85 5.34-4.35 9.4-1.84 4.09 2.53 8.36 4.54 13.21 5.11 5.64.67 10.94-.15 15.53-3.69 6.05-4.68 5.8-12.5-.37-17.15-4.89-3.68-10.64-5.55-16.16-7.88-5.98-2.53-12-4.93-17.31-8.77-8.26-5.97-12.81-13.98-13.98-24.11-.91-7.93-.32-15.57 2.91-22.91 4.63-10.51 12.5-17.66 23.28-21.39 16.94-5.87 32.62-2.66 47.18 7.21 3.6 2.44 4.4 5.52 2.35 9.13-2.43 4.27-5.18 8.37-8.55 11.99-2.55 2.74-4.14 2.98-7.47 1.15-3.84-2.11-7.54-4.53-11.97-5.2-5.38-.81-10.47-.16-14.67 3.75-4.2 3.92-4.28 9.58-.26 13.74 3.3 3.42 7.58 5.16 11.81 6.99 5.23 2.26 10.64 4.09 15.79 6.56 7.23 3.46 13.18 8.34 17.35 15.25 2.34 3.88 3.45 8.22 4.11 12.62 1.29 8.62.7 17.14-2.29 25.38-4.62 12.71-13.95 20.4-26.61 24.34-4.95 1.54-10.05 2.26-13.59 2.02z"/></svg>